<svg width="15" height="15" viewBox="0 0 15 15" fill="none" xmlns="http://www.w3.org/2000/svg">
<path fill-rule="evenodd" clip-rule="evenodd" d="M3.95481 5.21718L4.33169 9.69968C4.35919 10.0447 4.64106 10.3034 4.98544 10.3034H4.98794H11.8073H11.8086C12.1342 10.3034 12.4123 10.0609 12.4586 9.73906L13.0523 5.63968C13.0661 5.54218 13.0417 5.44468 12.9823 5.36593C12.9236 5.28656 12.8373 5.23531 12.7398 5.22156C12.6092 5.22656 7.18856 5.21906 3.95481 5.21718ZM4.98418 11.2409C4.16106 11.2409 3.46418 10.5984 3.39731 9.77655L2.82481 2.9678L1.88293 2.8053C1.62731 2.7603 1.45668 2.51843 1.50043 2.2628C1.54543 2.00718 1.79231 1.84093 2.04231 1.88093L3.34231 2.10593C3.55168 2.1428 3.71106 2.31655 3.72918 2.52905L3.87606 4.27968C12.7986 4.28343 12.8273 4.2878 12.8704 4.2928C13.2186 4.34343 13.5248 4.5253 13.7336 4.8053C13.9423 5.08468 14.0298 5.42905 13.9798 5.77405L13.3867 9.8728C13.2748 10.6528 12.5973 11.2409 11.8098 11.2409H11.8067H4.98918H4.98418Z" fill="#1F2021"/>
<path fill-rule="evenodd" clip-rule="evenodd" d="M10.8047 7.52734H9.07224C8.81286 7.52734 8.60349 7.31734 8.60349 7.05859C8.60349 6.79984 8.81286 6.58984 9.07224 6.58984H10.8047C11.0635 6.58984 11.2735 6.79984 11.2735 7.05859C11.2735 7.31734 11.0635 7.52734 10.8047 7.52734Z" fill="#1F2021"/>
<path fill-rule="evenodd" clip-rule="evenodd" d="M4.71532 12.9387C4.90344 12.9387 5.05532 13.0906 5.05532 13.2787C5.05532 13.4668 4.90344 13.6193 4.71532 13.6193C4.52657 13.6193 4.37469 13.4668 4.37469 13.2787C4.37469 13.0906 4.52657 12.9387 4.71532 12.9387Z" fill="#1F2021"/>
<mask id="mask0" mask-type="alpha" maskUnits="userSpaceOnUse" x="4" y="12" width="2" height="2">
<path fill-rule="evenodd" clip-rule="evenodd" d="M4.37436 13.2785C4.37436 13.4672 4.52623 13.6197 4.71561 13.6197C4.90373 13.6197 5.05561 13.4672 5.05561 13.2785C5.05561 13.0904 4.90373 12.9385 4.71561 12.9385C4.52623 12.9385 4.37436 13.0904 4.37436 13.2785Z" fill="white"/>
</mask>
<g mask="url(#mask0)">
<path fill-rule="evenodd" clip-rule="evenodd" d="M1.25 16.7441H8.18062V9.81348H1.25V16.7441Z" fill="#1F2021"/>
</g>
<path fill-rule="evenodd" clip-rule="evenodd" d="M4.7147 13.1506C4.64407 13.1506 4.58657 13.2081 4.58657 13.2787C4.58657 13.4206 4.84345 13.4206 4.84345 13.2787C4.84345 13.2081 4.78532 13.1506 4.7147 13.1506ZM4.71469 14.0881C4.26844 14.0881 3.90594 13.725 3.90594 13.2787C3.90594 12.8325 4.26844 12.47 4.71469 12.47C5.16094 12.47 5.52407 12.8325 5.52407 13.2787C5.52407 13.725 5.16094 14.0881 4.71469 14.0881Z" fill="#1F2021"/>
<path fill-rule="evenodd" clip-rule="evenodd" d="M11.7655 12.9388C11.9536 12.9388 12.1061 13.0907 12.1061 13.2788C12.1061 13.467 11.9536 13.6195 11.7655 13.6195C11.5768 13.6195 11.4249 13.467 11.4249 13.2788C11.4249 13.0907 11.5768 12.9388 11.7655 12.9388Z" fill="#1F2021"/>
<mask id="mask1" mask-type="alpha" maskUnits="userSpaceOnUse" x="11" y="12" width="2" height="2">
<path fill-rule="evenodd" clip-rule="evenodd" d="M11.425 13.2785C11.425 13.4672 11.5769 13.6197 11.7656 13.6197C11.9531 13.6197 12.1062 13.4672 12.1062 13.2785C12.1062 13.0904 11.9531 12.9385 11.7656 12.9385C11.5769 12.9385 11.425 13.0904 11.425 13.2785Z" fill="white"/>
</mask>
<g mask="url(#mask1)">
<path fill-rule="evenodd" clip-rule="evenodd" d="M8.29999 16.7441H15.2312V9.81348H8.29999V16.7441Z" fill="#1F2021"/>
</g>
<path fill-rule="evenodd" clip-rule="evenodd" d="M11.7649 13.1506C11.6949 13.1506 11.6374 13.2081 11.6374 13.2787C11.638 13.4218 11.8942 13.4206 11.8936 13.2787C11.8936 13.2081 11.8355 13.1506 11.7649 13.1506ZM11.7649 14.0881C11.3186 14.0881 10.9561 13.725 10.9561 13.2787C10.9561 12.8325 11.3186 12.47 11.7649 12.47C12.2117 12.47 12.5749 12.8325 12.5749 13.2787C12.5749 13.725 12.2117 14.0881 11.7649 14.0881Z" fill="#1F2021"/>
</svg>
