<svg width="15" height="15" viewBox="0 0 15 15" fill="none" xmlns="http://www.w3.org/2000/svg">
<mask id="mask0" mask-type="alpha" maskUnits="userSpaceOnUse" x="1" y="1" width="14" height="14">
<path fill-rule="evenodd" clip-rule="evenodd" d="M1.25 1.875H14.0453V14.0631H1.25V1.875Z" fill="white"/>
</mask>
<g mask="url(#mask0)">
<path fill-rule="evenodd" clip-rule="evenodd" d="M2.38983 7.57695C3.26608 10.3032 6.72796 12.5076 7.64796 13.0532C8.57108 12.502 12.058 10.2732 12.9061 7.57945C13.463 5.8382 12.9461 3.63258 10.8923 2.9707C9.89733 2.65133 8.73671 2.8457 7.93546 3.4657C7.76796 3.59445 7.53546 3.59695 7.36671 3.46945C6.51796 2.83133 5.40921 2.64445 4.39858 2.9707C2.34796 3.63195 1.83296 5.83758 2.38983 7.57695ZM7.64857 14.0632C7.57107 14.0632 7.4942 14.0444 7.4242 14.0063C7.22857 13.8994 2.62045 11.3594 1.49732 7.8632C1.4967 7.8632 1.4967 7.86257 1.4967 7.86257C0.791695 5.66132 1.5767 2.89507 4.11107 2.0782C5.30107 1.6932 6.59795 1.86257 7.6467 2.52445C8.66295 1.88195 10.0129 1.70445 11.1792 2.0782C13.7161 2.89632 14.5036 5.66195 13.7992 7.86257C12.7123 11.3188 8.07045 13.8969 7.87357 14.0051C7.80357 14.0438 7.72607 14.0632 7.64857 14.0632Z" fill="#DF2525"/>
</g>
<path fill-rule="evenodd" clip-rule="evenodd" d="M11.3461 6.64067C11.1042 6.64067 10.8992 6.45504 10.8792 6.21004C10.8379 5.69629 10.4942 5.26254 10.0048 5.10442C9.75793 5.02442 9.62293 4.76004 9.70231 4.51442C9.78293 4.26817 10.0448 4.13442 10.2923 4.21192C11.1442 4.48754 11.7411 5.24192 11.8142 6.13379C11.8348 6.39192 11.6429 6.61817 11.3848 6.63879C11.3717 6.64004 11.3592 6.64067 11.3461 6.64067Z" fill="#DF2525"/>
</svg>
