<svg width="32" height="32" viewBox="0 0 32 32" fill="none" xmlns="http://www.w3.org/2000/svg">
<path fill-rule="evenodd" clip-rule="evenodd" d="M28.4975 16.2471C28.3609 23.1494 22.6544 28.6339 15.7526 28.4973C8.85074 28.3607 3.36578 22.6546 3.50242 15.7523C3.63903 8.85093 9.34595 3.36557 16.2474 3.50219C23.1488 3.63881 28.6341 9.34572 28.4975 16.2471ZM26.6229 16.21C26.739 10.3439 22.0763 5.49294 16.2103 5.37682C10.3442 5.2607 5.49317 9.92337 5.37705 15.7895C5.26091 21.6563 9.92315 26.5065 15.7897 26.6227C21.6562 26.7388 26.5067 22.0769 26.6229 16.21ZM18.48 19.8292C18.7458 20.2009 18.7064 20.7212 18.3677 21.0481C17.9952 21.4077 17.4017 21.3972 17.0421 21.0247L12.7713 16.6005L12.6822 16.4935C12.4158 16.1205 12.4565 15.5986 12.7976 15.2721L17.2402 11.0205L17.3473 10.932C17.7202 10.6678 18.2402 10.7095 18.5657 11.0496L18.6541 11.1567C18.9183 11.5296 18.8766 12.0496 18.5366 12.3751L14.7752 15.977L18.3911 19.7225L18.48 19.8292Z" fill="#85ADA3"/>
</svg>
