<svg width="32" height="32" viewBox="0 0 32 32" fill="none" xmlns="http://www.w3.org/2000/svg">
<path fill-rule="evenodd" clip-rule="evenodd" d="M3.50248 16.2471C3.63912 23.1494 9.3456 28.6339 16.2474 28.4973C23.1493 28.3607 28.6342 22.6546 28.4976 15.7523C28.361 8.85093 22.6541 3.36557 15.7526 3.50219C8.85122 3.63881 3.36586 9.34572 3.50248 16.2471ZM5.37711 16.21C5.26099 10.3439 9.92366 5.49294 15.7897 5.37682C21.6558 5.2607 26.5068 9.92337 26.623 15.7895C26.7391 21.6563 22.0769 26.5065 16.2103 26.6227C10.3438 26.7388 5.49325 22.0769 5.37711 16.21ZM13.52 19.8292C13.2542 20.2009 13.2936 20.7212 13.6323 21.0481C14.0048 21.4077 14.5983 21.3972 14.9579 21.0247L19.2287 16.6005L19.3178 16.4935C19.5842 16.1205 19.5435 15.5986 19.2024 15.2721L14.7598 11.0205L14.6527 10.932C14.2798 10.6678 13.7598 10.7095 13.4343 11.0496L13.3459 11.1567C13.0817 11.5296 13.1234 12.0496 13.4634 12.3751L17.2248 15.977L13.6089 19.7225L13.52 19.8292Z" fill="#85ADA3"/>
</svg>
