<svg width="149" height="39" viewBox="0 0 149 39" fill="none" xmlns="http://www.w3.org/2000/svg">
<path d="M48 10.852V13.79H40.434V18.444H46.232V21.33H40.434V29H36.794V10.852H48ZM54.1691 10.852V22.084C54.1691 23.3147 54.4898 24.2593 55.1311 24.918C55.7724 25.5593 56.6738 25.88 57.8351 25.88C59.0138 25.88 59.9238 25.5593 60.5651 24.918C61.2064 24.2593 61.5271 23.3147 61.5271 22.084V10.852H65.1931V22.058C65.1931 23.6007 64.8551 24.9093 64.1791 25.984C63.5204 27.0413 62.6278 27.8387 61.5011 28.376C60.3918 28.9133 59.1524 29.182 57.7831 29.182C56.4311 29.182 55.2004 28.9133 54.0911 28.376C52.9991 27.8387 52.1324 27.0413 51.4911 25.984C50.8498 24.9093 50.5291 23.6007 50.5291 22.058V10.852H54.1691Z" fill="#1F3937"/>
<path d="M74.976 29.182C73.7107 29.182 72.5667 28.9653 71.544 28.532C70.5387 28.0987 69.7413 27.4747 69.152 26.66C68.5627 25.8453 68.2593 24.8833 68.242 23.774H72.142C72.194 24.5193 72.454 25.1087 72.922 25.542C73.4073 25.9753 74.066 26.192 74.898 26.192C75.7473 26.192 76.4147 25.9927 76.9 25.594C77.3853 25.178 77.628 24.6407 77.628 23.982C77.628 23.4447 77.4633 23.0027 77.134 22.656C76.8047 22.3093 76.3887 22.0407 75.886 21.85C75.4007 21.642 74.7247 21.4167 73.858 21.174C72.6793 20.8273 71.7173 20.4893 70.972 20.16C70.244 19.8133 69.6113 19.302 69.074 18.626C68.554 17.9327 68.294 17.014 68.294 15.87C68.294 14.7953 68.5627 13.8593 69.1 13.062C69.6373 12.2647 70.3913 11.658 71.362 11.242C72.3327 10.8087 73.442 10.592 74.69 10.592C76.562 10.592 78.0787 11.0513 79.24 11.97C80.4187 12.8713 81.0687 14.1367 81.19 15.766H77.186C77.1513 15.142 76.8827 14.6307 76.38 14.232C75.8947 13.816 75.2447 13.608 74.43 13.608C73.7193 13.608 73.1473 13.79 72.714 14.154C72.298 14.518 72.09 15.0467 72.09 15.74C72.09 16.2253 72.246 16.6327 72.558 16.962C72.8873 17.274 73.286 17.534 73.754 17.742C74.2393 17.9327 74.9153 18.158 75.782 18.418C76.9607 18.7647 77.9227 19.1113 78.668 19.458C79.4133 19.8047 80.0547 20.3247 80.592 21.018C81.1293 21.7113 81.398 22.6213 81.398 23.748C81.398 24.7187 81.1467 25.62 80.644 26.452C80.1413 27.284 79.4047 27.9513 78.434 28.454C77.4633 28.9393 76.3107 29.182 74.976 29.182ZM96.9038 10.852V13.79H92.0678V29H88.4278V13.79H83.5918V10.852H96.9038ZM107.984 29.182C106.285 29.182 104.725 28.7833 103.304 27.986C101.882 27.1887 100.756 26.088 99.9236 24.684C99.0916 23.2627 98.6756 21.6593 98.6756 19.874C98.6756 18.106 99.0916 16.52 99.9236 15.116C100.756 13.6947 101.882 12.5853 103.304 11.788C104.725 10.9907 106.285 10.592 107.984 10.592C109.7 10.592 111.26 10.9907 112.664 11.788C114.085 12.5853 115.203 13.6947 116.018 15.116C116.85 16.52 117.266 18.106 117.266 19.874C117.266 21.6593 116.85 23.2627 116.018 24.684C115.203 26.088 114.085 27.1887 112.664 27.986C111.242 28.7833 109.682 29.182 107.984 29.182ZM107.984 25.932C109.076 25.932 110.038 25.6893 110.87 25.204C111.702 24.7013 112.352 23.9907 112.82 23.072C113.288 22.1533 113.522 21.0873 113.522 19.874C113.522 18.6607 113.288 17.6033 112.82 16.702C112.352 15.7833 111.702 15.0813 110.87 14.596C110.038 14.1107 109.076 13.868 107.984 13.868C106.892 13.868 105.921 14.1107 105.072 14.596C104.24 15.0813 103.59 15.7833 103.122 16.702C102.654 17.6033 102.42 18.6607 102.42 19.874C102.42 21.0873 102.654 22.1533 103.122 23.072C103.59 23.9907 104.24 24.7013 105.072 25.204C105.921 25.6893 106.892 25.932 107.984 25.932ZM129.334 29L125.33 21.928H123.614V29H119.974V10.852H126.786C128.19 10.852 129.386 11.1033 130.374 11.606C131.362 12.0913 132.098 12.7587 132.584 13.608C133.086 14.44 133.338 15.376 133.338 16.416C133.338 17.612 132.991 18.6953 132.298 19.666C131.604 20.6193 130.573 21.278 129.204 21.642L133.546 29H129.334ZM123.614 19.198H126.656C127.644 19.198 128.38 18.964 128.866 18.496C129.351 18.0107 129.594 17.3433 129.594 16.494C129.594 15.662 129.351 15.0207 128.866 14.57C128.38 14.102 127.644 13.868 126.656 13.868H123.614V19.198ZM140.27 13.79V18.34H146.38V21.226H140.27V26.036H147.16V29H136.63V10.826H147.16V13.79H140.27Z" fill="#00887B"/>
<rect y="8" width="5" height="22" fill="#1F3937"/>
<rect x="8" y="15" width="5" height="15" fill="#00887B"/>
<rect x="16" y="8" width="5" height="17" fill="#00887B"/>
</svg>
