<svg width="171" height="39" viewBox="0 0 171 39" fill="none" xmlns="http://www.w3.org/2000/svg">
<path d="M53.096 10.852L46.44 29H42.02L35.364 10.852H39.264L44.256 25.282L49.222 10.852H53.096ZM58.8664 10.852V22.084C58.8664 23.3147 59.187 24.2593 59.8284 24.918C60.4697 25.5593 61.371 25.88 62.5324 25.88C63.711 25.88 64.621 25.5593 65.2624 24.918C65.9037 24.2593 66.2244 23.3147 66.2244 22.084V10.852H69.8904V22.058C69.8904 23.6007 69.5524 24.9093 68.8764 25.984C68.2177 27.0413 67.325 27.8387 66.1984 28.376C65.089 28.9133 63.8497 29.182 62.4804 29.182C61.1284 29.182 59.8977 28.9133 58.7884 28.376C57.6964 27.8387 56.8297 27.0413 56.1884 25.984C55.547 24.9093 55.2264 23.6007 55.2264 22.058V10.852H58.8664ZM82.7673 29L78.7633 21.928H77.0473V29H73.4073V10.852H80.2193C81.6233 10.852 82.8193 11.1033 83.8073 11.606C84.7953 12.0913 85.5319 12.7587 86.0173 13.608C86.5199 14.44 86.7713 15.376 86.7713 16.416C86.7713 17.612 86.4246 18.6953 85.7313 19.666C85.0379 20.6193 84.0066 21.278 82.6373 21.642L86.9793 29H82.7673ZM77.0473 19.198H80.0893C81.0773 19.198 81.8139 18.964 82.2993 18.496C82.7846 18.0107 83.0273 17.3433 83.0273 16.494C83.0273 15.662 82.7846 15.0207 82.2993 14.57C81.8139 14.102 81.0773 13.868 80.0893 13.868H77.0473V19.198Z" fill="#1F3937"/>
<path d="M96.3295 29.182C95.0642 29.182 93.9202 28.9653 92.8975 28.532C91.8922 28.0987 91.0949 27.4747 90.5055 26.66C89.9162 25.8453 89.6129 24.8833 89.5955 23.774H93.4955C93.5475 24.5193 93.8075 25.1087 94.2755 25.542C94.7609 25.9753 95.4195 26.192 96.2515 26.192C97.1009 26.192 97.7682 25.9927 98.2535 25.594C98.7389 25.178 98.9815 24.6407 98.9815 23.982C98.9815 23.4447 98.8169 23.0027 98.4875 22.656C98.1582 22.3093 97.7422 22.0407 97.2395 21.85C96.7542 21.642 96.0782 21.4167 95.2115 21.174C94.0329 20.8273 93.0709 20.4893 92.3255 20.16C91.5975 19.8133 90.9649 19.302 90.4275 18.626C89.9075 17.9327 89.6475 17.014 89.6475 15.87C89.6475 14.7953 89.9162 13.8593 90.4535 13.062C90.9909 12.2647 91.7449 11.658 92.7155 11.242C93.6862 10.8087 94.7955 10.592 96.0435 10.592C97.9155 10.592 99.4322 11.0513 100.594 11.97C101.772 12.8713 102.422 14.1367 102.544 15.766H98.5395C98.5049 15.142 98.2362 14.6307 97.7335 14.232C97.2482 13.816 96.5982 13.608 95.7835 13.608C95.0729 13.608 94.5009 13.79 94.0675 14.154C93.6515 14.518 93.4435 15.0467 93.4435 15.74C93.4435 16.2253 93.5995 16.6327 93.9115 16.962C94.2409 17.274 94.6395 17.534 95.1075 17.742C95.5929 17.9327 96.2689 18.158 97.1355 18.418C98.3142 18.7647 99.2762 19.1113 100.022 19.458C100.767 19.8047 101.408 20.3247 101.946 21.018C102.483 21.7113 102.752 22.6213 102.752 23.748C102.752 24.7187 102.5 25.62 101.998 26.452C101.495 27.284 100.758 27.9513 99.7875 28.454C98.8169 28.9393 97.6642 29.182 96.3295 29.182ZM118.257 10.852V13.79H113.421V29H109.781V13.79H104.945V10.852H118.257ZM129.337 29.182C127.638 29.182 126.078 28.7833 124.657 27.986C123.236 27.1887 122.109 26.088 121.277 24.684C120.445 23.2627 120.029 21.6593 120.029 19.874C120.029 18.106 120.445 16.52 121.277 15.116C122.109 13.6947 123.236 12.5853 124.657 11.788C126.078 10.9907 127.638 10.592 129.337 10.592C131.053 10.592 132.613 10.9907 134.017 11.788C135.438 12.5853 136.556 13.6947 137.371 15.116C138.203 16.52 138.619 18.106 138.619 19.874C138.619 21.6593 138.203 23.2627 137.371 24.684C136.556 26.088 135.438 27.1887 134.017 27.986C132.596 28.7833 131.036 29.182 129.337 29.182ZM129.337 25.932C130.429 25.932 131.391 25.6893 132.223 25.204C133.055 24.7013 133.705 23.9907 134.173 23.072C134.641 22.1533 134.875 21.0873 134.875 19.874C134.875 18.6607 134.641 17.6033 134.173 16.702C133.705 15.7833 133.055 15.0813 132.223 14.596C131.391 14.1107 130.429 13.868 129.337 13.868C128.245 13.868 127.274 14.1107 126.425 14.596C125.593 15.0813 124.943 15.7833 124.475 16.702C124.007 17.6033 123.773 18.6607 123.773 19.874C123.773 21.0873 124.007 22.1533 124.475 23.072C124.943 23.9907 125.593 24.7013 126.425 25.204C127.274 25.6893 128.245 25.932 129.337 25.932ZM150.687 29L146.683 21.928H144.967V29H141.327V10.852H148.139C149.543 10.852 150.739 11.1033 151.727 11.606C152.715 12.0913 153.452 12.7587 153.937 13.608C154.44 14.44 154.691 15.376 154.691 16.416C154.691 17.612 154.345 18.6953 153.651 19.666C152.958 20.6193 151.927 21.278 150.557 21.642L154.899 29H150.687ZM144.967 19.198H148.009C148.997 19.198 149.734 18.964 150.219 18.496C150.705 18.0107 150.947 17.3433 150.947 16.494C150.947 15.662 150.705 15.0207 150.219 14.57C149.734 14.102 148.997 13.868 148.009 13.868H144.967V19.198ZM161.623 13.79V18.34H167.733V21.226H161.623V26.036H168.513V29H157.983V10.826H168.513V13.79H161.623Z" fill="#00887B"/>
<rect y="8" width="5" height="22" fill="#1F3937"/>
<rect x="8" y="15" width="5" height="15" fill="#00887B"/>
<rect x="16" y="8" width="5" height="17" fill="#00887B"/>
</svg>
