<svg width="94" height="94" viewBox="0 0 94 94" fill="none" xmlns="http://www.w3.org/2000/svg">
<circle cx="47" cy="47" r="46.5" fill="#F1FDFA" stroke="#E5EEED"/>
<g clip-path="url(#clip0)">
<path d="M66.1867 38.272H64.5545C63.8922 38.272 63.3552 38.809 63.3552 39.4713V53.0312H62.2242V52.5437C62.2242 50.6164 60.6563 49.0484 58.7289 49.0484H50.4021V45.5013H56.2223C57.3183 45.5013 58.3393 45.065 59.0972 44.2728C59.8557 43.4801 60.2468 42.4397 60.1984 41.3461L59.3245 20.483C59.2301 18.3489 57.4836 16.6774 55.3485 16.6774H37.8935C35.7584 16.6774 34.012 18.3489 33.9175 20.4858L33.0438 41.3434C32.9953 42.4397 33.3863 43.48 34.1449 44.2728C34.9027 45.065 35.9238 45.5013 37.0198 45.5013H42.84V49.0484H34.513C32.5858 49.0484 31.0177 50.6163 31.0177 52.5437V53.0312H29.8868V39.4713C29.8868 38.809 29.3498 38.272 28.6875 38.272H27.0553C26.3931 38.272 25.856 38.809 25.856 39.4713C25.856 40.1335 26.3931 40.6706 27.0553 40.6706H27.4882V54.2305C27.4882 54.8927 28.0253 55.4298 28.6875 55.4298H31.0177V57.3638C31.0177 58.0261 31.5548 58.5631 32.217 58.5631H42.8398V68.2819H37.2406C36.5783 68.2819 36.0413 68.8189 36.0413 69.4811V71.673C34.8047 72.1548 33.926 73.3589 33.926 74.7645C33.926 76.5929 35.4129 78.0805 37.2406 78.0805C39.0683 78.0805 40.5551 76.5929 40.5551 74.7645C40.5551 73.3589 39.6764 72.1547 38.4398 71.673V70.6804H45.4217V71.673C44.1851 72.1548 43.3064 73.3589 43.3064 74.7645C43.3064 76.5929 44.7933 78.0805 46.621 78.0805C48.4487 78.0805 49.9356 76.5929 49.9356 74.7645C49.9356 73.3589 49.0568 72.1547 47.8203 71.673V70.6804H54.8021V71.673C53.5656 72.1548 52.6868 73.3589 52.6868 74.7645C52.6868 76.5929 54.1737 78.0805 56.0014 78.0805C57.8291 78.0805 59.316 76.5929 59.316 74.7645C59.316 73.3589 58.4373 72.1547 57.2007 71.673V69.4811C57.2007 68.8189 56.6637 68.2819 56.0014 68.2819H50.4022V58.5631H61.025C61.6872 58.5631 62.2242 58.0261 62.2242 57.3638V55.4298H64.5545C65.2167 55.4298 65.7537 54.8927 65.7537 54.2305V40.6706H66.1867C66.8489 40.6706 67.386 40.1335 67.386 39.4713C67.386 38.809 66.8489 38.272 66.1867 38.272ZM37.2406 75.682C36.7354 75.682 36.3246 75.2704 36.3246 74.7646C36.3246 74.2587 36.7354 73.847 37.2406 73.847C37.7457 73.847 38.1566 74.2587 38.1566 74.7646C38.1566 75.2704 37.7457 75.682 37.2406 75.682ZM46.621 75.682C46.1158 75.682 45.705 75.2704 45.705 74.7646C45.705 74.2587 46.1158 73.847 46.621 73.847C47.1261 73.847 47.537 74.2587 47.537 74.7646C47.537 75.2704 47.1261 75.682 46.621 75.682ZM56.0014 75.682C55.4963 75.682 55.0854 75.2704 55.0854 74.7646C55.0854 74.2587 55.4963 73.847 56.0014 73.847C56.5065 73.847 56.9174 74.2587 56.9174 74.7646C56.9174 75.2704 56.5065 75.682 56.0014 75.682ZM35.8778 42.6146C35.5761 42.2993 35.4205 41.8854 35.4401 41.4465L36.3138 20.5891C36.3513 19.7406 37.0451 19.0759 37.8935 19.0759H55.3486C56.1969 19.0759 56.8907 19.7406 56.9282 20.5863L57.8021 41.4493C57.8214 41.8855 57.6659 42.2994 57.3643 42.6147C57.0631 42.9294 56.6577 43.1027 56.2224 43.1027H37.0195C36.5844 43.1027 36.179 42.9293 35.8778 42.6146ZM45.2385 45.5013H48.0036V49.0484H45.2385V45.5013ZM48.0035 68.2819H45.2383V58.5631H48.0035V68.2819ZM59.8256 56.1646H33.4164V52.5437C33.4164 51.939 33.9085 51.4469 34.5132 51.4469H58.7291C59.3337 51.4469 59.8258 51.939 59.8258 52.5437V56.1646H59.8256Z" fill="#00887B"/>
</g>
<defs>
<clipPath id="clip0">
<rect width="61.4032" height="61.4032" fill="white" transform="translate(15.9193 16.6774)"/>
</clipPath>
</defs>
</svg>
