<svg width="75" height="76" viewBox="0 0 75 76" fill="none" xmlns="http://www.w3.org/2000/svg">
<circle cx="37.3496" cy="38.1165" r="36.8912" fill="#F1FDFA" stroke="#E5EEED" stroke-width="0.793359"/>
<g clip-path="url(#clip0)">
<path d="M47.9246 44.3847H45.3861C46.2585 42.9225 45.9071 40.9391 45.8578 40.6883C45.7935 40.361 45.5376 40.1049 45.2102 40.0406C44.9228 39.9842 42.3613 39.5307 40.9152 40.9773C39.9404 41.9523 39.8288 43.4343 39.8768 44.3847H38.3285V41.137C39.2302 40.9475 40.0376 40.4475 40.6171 39.7019C40.9346 39.2935 41.1635 38.8371 41.2988 38.3567C41.7371 38.6024 42.2253 38.7644 42.7422 38.8291C43.9557 38.9805 45.1476 38.5733 46.0128 37.7115C46.8777 36.8498 47.2871 35.6617 47.1362 34.4519C47.072 33.9368 46.9102 33.4504 46.6646 33.0134C47.1507 32.8772 47.6122 32.6459 48.0246 32.3247C48.986 31.5761 49.5374 30.449 49.5374 29.2326C49.5374 28.0162 48.986 26.8891 48.0245 26.1405C47.612 25.8193 47.1506 25.588 46.6645 25.4518C46.9101 25.0148 47.0718 24.5284 47.1361 24.0133C47.287 22.8035 46.8776 21.6154 46.0127 20.7537C45.1476 19.8918 43.9556 19.4841 42.7421 19.6361C42.2252 19.7007 41.737 19.8627 41.2987 20.1084C41.1634 19.628 40.9345 19.1716 40.6171 18.7632C39.8663 17.7971 38.7327 17.243 37.507 17.243C36.2814 17.243 35.1478 17.7971 34.3969 18.763C34.0795 19.1715 33.8505 19.6279 33.7152 20.1082C33.277 19.8625 32.7888 19.7005 32.2719 19.636C31.0584 19.4842 29.8663 19.8916 29.0013 20.7536C28.1364 21.6152 27.7269 22.8033 27.8779 24.0132C27.9421 24.5283 28.1039 25.0148 28.3495 25.4517C27.8635 25.5879 27.4019 25.8192 26.9895 26.1403C26.028 26.889 25.4766 28.016 25.4766 29.2324C25.4766 30.4489 26.028 31.5759 26.9894 32.3245C27.4019 32.6458 27.8633 32.877 28.3494 33.0132C28.1038 33.4502 27.942 33.9366 27.8778 34.4517C27.7269 35.6615 28.1363 36.8495 29.0012 37.7113C29.8663 38.5733 31.0583 38.9803 32.2718 38.8289C32.7887 38.7643 33.2768 38.6023 33.7152 38.3565C33.8505 38.837 34.0794 39.2934 34.3968 39.7018C34.9763 40.4472 35.7837 40.9474 36.6854 41.1369V44.3845H35.1371C35.1852 43.4341 35.0734 41.9522 34.0987 40.9771C32.6525 39.5305 30.0911 39.984 29.8037 40.0404C29.4764 40.1048 29.2204 40.3608 29.1561 40.6882C29.1068 40.939 28.7553 42.9222 29.6278 44.3845H27.0893C26.6356 44.3845 26.2678 44.7523 26.2678 45.206V49.0776C26.2678 49.5313 26.6356 49.8991 27.0893 49.8991H28.8395L30.3557 58.6237C30.4242 59.0172 30.7657 59.3046 31.1652 59.3046H43.8486C44.248 59.3046 44.5896 59.0172 44.658 58.6237L46.1742 49.8991H47.9245C48.3782 49.8991 48.746 49.5313 48.746 49.0776V45.206C48.7461 44.7525 48.3783 44.3847 47.9246 44.3847V44.3847ZM35.6942 38.6937C35.2602 38.1354 35.1112 37.4228 35.2854 36.7386L35.3146 36.6237C35.4154 36.2283 35.2106 35.819 34.8339 35.6624C34.7313 35.6197 34.6244 35.5993 34.5189 35.5993C34.2371 35.5993 33.9656 35.7448 33.8133 35.9996L33.7524 36.1015C33.3886 36.7105 32.7747 37.1105 32.0682 37.1987C31.3604 37.287 30.6651 37.0498 30.1609 36.5475C29.6586 36.0469 29.4206 35.3572 29.5082 34.6552C29.596 33.9518 29.9972 33.3402 30.6091 32.9772L30.7114 32.9166C31.0625 32.7084 31.2074 32.2739 31.0516 31.8965C30.8959 31.5192 30.4869 31.3134 30.0909 31.4136L29.9757 31.4426C29.2827 31.618 28.5621 31.4667 27.999 31.0282C27.4402 30.593 27.1197 29.9385 27.1197 29.2324C27.1197 28.5263 27.4402 27.8718 27.999 27.4367C28.5622 26.9982 29.2827 26.8472 29.9756 27.0222L30.0909 27.0514C30.4865 27.1514 30.896 26.9457 31.0517 26.5684C31.2075 26.1911 31.0626 25.7567 30.7114 25.5483L30.6092 25.4876C29.9973 25.1248 29.596 24.5131 29.5083 23.8098C29.4208 23.1078 29.6587 22.418 30.161 21.9175C30.6652 21.4151 31.3602 21.1775 32.0682 21.2663C32.7747 21.3546 33.3886 21.7545 33.7525 22.3636L33.8134 22.4654C34.0227 22.8156 34.4573 22.9592 34.8341 22.8026C35.2108 22.646 35.4154 22.2366 35.3147 21.8412L35.2855 21.7264C35.1112 21.0422 35.2603 20.3296 35.6943 19.7713C36.1315 19.2088 36.7922 18.8861 37.507 18.8861C38.2218 18.8861 38.8826 19.2088 39.3199 19.7713C39.7539 20.3296 39.9028 21.0422 39.7287 21.7263L39.6994 21.8412C39.5987 22.2366 39.8033 22.646 40.1801 22.8027C40.557 22.9593 40.9914 22.8158 41.2007 22.4655L41.2617 22.3636C41.6256 21.7545 42.2395 21.3546 42.946 21.2663C43.6539 21.1776 44.349 21.4152 44.8531 21.9176C45.3555 22.4181 45.5934 23.1078 45.5058 23.8098C45.4181 24.5133 45.0169 25.1248 44.405 25.4878L44.3027 25.5484C43.9516 25.7567 43.8067 26.1912 43.9624 26.5685C44.1182 26.9458 44.5273 27.1516 44.9232 27.0515L45.0384 27.0224C45.7314 26.8472 46.452 26.9983 47.0151 27.4368C47.5739 27.8719 47.8944 28.5264 47.8944 29.2325C47.8944 29.9386 47.5739 30.5932 47.0151 31.0283C46.452 31.4668 45.7314 31.6178 45.0385 31.4427L44.9231 31.4136C44.5272 31.3134 44.1181 31.5192 43.9624 31.8965C43.8066 32.2739 43.9515 32.7083 44.3026 32.9166L44.4049 32.9772C45.0168 33.3402 45.4181 33.9518 45.5057 34.6552C45.5933 35.3572 45.3554 36.0469 44.853 36.5475C44.3489 37.0497 43.6536 37.2868 42.9458 37.1987C42.2393 37.1104 41.6254 36.7105 41.2616 36.1016L41.2007 35.9996C40.9915 35.6493 40.557 35.5057 40.1802 35.6624C39.8034 35.819 39.5987 36.2284 39.6994 36.6237L39.7287 36.7386C39.9029 37.4228 39.7539 38.1354 39.3199 38.6937C38.8826 39.2563 38.2218 39.579 37.507 39.579C36.7922 39.579 36.1315 39.2563 35.6942 38.6937V38.6937ZM41.524 44.3765C41.4838 43.6798 41.552 42.6642 42.0772 42.1389C42.604 41.612 43.6109 41.5428 44.3132 41.585C44.3555 42.2886 44.2863 43.2957 43.7596 43.8227C43.3472 44.2352 42.6405 44.3671 42.0159 44.3847H41.7107C41.6466 44.3829 41.5841 44.3802 41.524 44.3765ZM31.2545 43.8227C30.7277 43.2957 30.6587 42.2884 30.7007 41.5856C31.3971 41.5453 32.4119 41.6137 32.9368 42.1389C33.4636 42.6659 33.5327 43.6732 33.4906 44.376C33.4182 44.3802 33.3423 44.3833 33.2639 44.3847H33.0557C32.4193 44.3727 31.6777 44.2461 31.2545 43.8227V43.8227ZM43.1577 57.6617H31.8564L30.5074 49.8994H44.5066L43.1577 57.6617ZM47.1031 48.2563H27.911V46.0278H47.1031V48.2563Z" fill="#00887B"/>
<path d="M40.2775 29.2325C40.2775 27.7044 39.0346 26.4612 37.5069 26.4612C35.9791 26.4612 34.7362 27.7044 34.7362 29.2325C34.7362 30.7606 35.9791 32.0038 37.5069 32.0038C39.0346 32.0038 40.2775 30.7606 40.2775 29.2325ZM36.3792 29.2325C36.3792 28.6104 36.885 28.1042 37.5069 28.1042C38.1287 28.1042 38.6345 28.6104 38.6345 29.2325C38.6345 29.8546 38.1287 30.3608 37.5069 30.3608C36.885 30.3608 36.3792 29.8546 36.3792 29.2325Z" fill="#00887B"/>
</g>
<defs>
<clipPath id="clip0">
<rect width="42.0617" height="42.0617" fill="white" transform="translate(16.476 17.243)"/>
</clipPath>
</defs>
</svg>
