<svg width="94" height="94" viewBox="0 0 94 94" fill="none" xmlns="http://www.w3.org/2000/svg">
<circle cx="47" cy="47" r="46.5" fill="#F1FDFA" stroke="#E5EEED"/>
<path d="M72.2054 26.4755H20.7946C20.2175 26.4755 19.7497 26.9433 19.7497 27.5204V32.6531C19.7497 33.2302 20.2175 33.698 20.7946 33.698H22.3896V67.4797C22.3896 68.0568 22.8574 68.5246 23.4345 68.5246C24.0117 68.5246 24.4795 68.0568 24.4795 67.4797V66.5216H46.4818V67.4797C46.4818 68.0568 46.9496 68.5246 47.5267 68.5246C48.1039 68.5246 48.5717 68.0568 48.5717 67.4797V33.698H68.5206V67.4797C68.5206 68.0568 68.9884 68.5246 69.5655 68.5246C70.1427 68.5246 70.6105 68.0568 70.6105 67.4797V33.698H72.2054C72.7825 33.698 73.2503 33.2302 73.2503 32.6531V27.5204C73.2503 26.9433 72.7825 26.4755 72.2054 26.4755ZM46.4818 53.3572H24.4795V44.4624H46.4818V53.3572ZM24.4795 64.4317V55.4471H46.4818V64.4317H24.4795ZM46.4818 42.3726H24.4795V33.698H46.4818V42.3726ZM71.1604 31.6082H21.8396V28.5653H71.1604V31.6082Z" fill="#00887B"/>
<path d="M32.199 39.7556H38.7622C39.3393 39.7556 39.8071 39.2878 39.8071 38.7107V36.9303C39.8071 36.3532 39.3393 35.8854 38.7622 35.8854C38.1851 35.8854 37.7172 36.3532 37.7172 36.9303V37.6657H33.244V36.9303C33.244 36.3532 32.7762 35.8854 32.199 35.8854C31.6219 35.8854 31.1541 36.3532 31.1541 36.9303V38.7107C31.1541 39.2878 31.6219 39.7556 32.199 39.7556Z" fill="#00887B"/>
<path d="M32.199 50.8898H38.7622C39.3393 50.8898 39.8071 50.4219 39.8071 49.8448V48.0645C39.8071 47.4873 39.3393 47.0195 38.7622 47.0195C38.1851 47.0195 37.7172 47.4873 37.7172 48.0645V48.7999H33.244V48.0645C33.244 47.4873 32.7762 47.0195 32.199 47.0195C31.6219 47.0195 31.1541 47.4873 31.1541 48.0645V49.8448C31.1541 50.4219 31.6219 50.8898 32.199 50.8898Z" fill="#00887B"/>
<path d="M38.7622 58.0641C38.1851 58.0641 37.7172 58.5319 37.7172 59.109V59.8444H33.244V59.109C33.244 58.5319 32.7762 58.0641 32.199 58.0641C31.6219 58.0641 31.1541 58.5319 31.1541 59.109V60.8894C31.1541 61.4665 31.6219 61.9343 32.199 61.9343H38.7622C39.3393 61.9343 39.8071 61.4665 39.8071 60.8894V59.109C39.8071 58.5319 39.3393 58.0641 38.7622 58.0641Z" fill="#00887B"/>
</svg>
