<svg width="94" height="94" viewBox="0 0 94 94" fill="none" xmlns="http://www.w3.org/2000/svg">
<circle cx="47" cy="47" r="46.5" fill="#F1FDFA" stroke="#E5EEED"/>
<g clip-path="url(#clip0)">
<path d="M69.2556 63.1355H56.1891V60.0127C56.1891 58.9582 55.3311 58.1002 54.2766 58.1002H47.7145C46.66 58.1002 45.8021 58.9582 45.8021 60.0127V63.1355H43.4464L35.205 50.8257C36.5553 49.8482 37.436 48.2549 37.436 46.4589C37.436 45.0228 36.8729 43.7164 35.9571 42.7508L42.5585 35.7534L43.1758 36.3743C42.0072 37.7216 41.3691 39.4277 41.3691 41.2321C41.3691 43.209 42.1347 45.0677 43.525 46.466L48.1052 51.0733C48.5228 51.4933 49.0784 51.7246 49.6698 51.7246C50.2609 51.7246 50.8165 51.4933 51.2345 51.0732L55.9783 46.3004C56.711 46.7216 57.5228 46.9303 58.3326 46.9303C59.5558 46.9303 60.7746 46.4539 61.7086 45.5143C63.2627 43.9511 63.5396 41.6024 62.4834 39.7554L67.2332 34.9766C68.0915 34.1135 68.0915 32.7091 67.2334 31.8461L62.6533 27.2388C61.2634 25.8408 59.4124 25.0711 57.4414 25.0711C55.6464 25.0711 53.951 25.7096 52.6126 26.8797L48.9905 23.2362C48.7962 23.0406 48.5319 22.9308 48.2562 22.9308C47.9806 22.9308 47.7163 23.0408 47.5221 23.2363L39.5454 31.2632C39.1441 31.6669 39.1442 32.3189 39.5455 32.7226L41.098 34.2844L34.2515 41.5415C33.5881 41.245 32.8541 41.0801 32.0823 41.0801C29.1305 41.0801 26.729 43.493 26.729 46.4589C26.729 49.4248 29.1305 51.8377 32.0823 51.8377C32.5001 51.8377 32.9068 51.7894 33.2973 51.698L40.9547 63.1355H23.7444C21.6797 63.1355 20 64.8153 20 66.8799V71.0343C20 71.6059 20.4635 72.0694 21.0352 72.0694H71.9648C72.5365 72.0694 73 71.6059 73 71.0343V66.8799C73 64.8153 71.3203 63.1355 69.2556 63.1355ZM60.2405 44.0547C59.5073 44.7921 58.4646 45.025 57.5357 44.7336L60.9151 41.3336C61.1931 42.2698 60.9617 43.3293 60.2405 44.0547ZM57.4415 27.1414C58.8573 27.1414 60.1868 27.6944 61.1851 28.6985L65.7653 33.3057C65.8221 33.363 65.8221 33.4597 65.7651 33.517L49.7665 49.6133C49.7126 49.6676 49.627 49.6673 49.5735 49.6136L44.9933 45.0063C43.9913 43.9986 43.4396 42.6582 43.4396 41.2321C43.4396 39.8061 43.9913 38.4657 44.9934 37.4578L53.6981 28.6986C54.6964 27.6944 56.0258 27.1414 57.4415 27.1414ZM48.2567 25.4344L51.1404 28.3351L44.623 34.8935L41.7394 31.9929L48.2567 25.4344ZM28.7997 46.4587C28.7997 44.6345 30.2725 43.1503 32.0827 43.1503C33.8929 43.1503 35.3658 44.6345 35.3658 46.4587C35.3658 48.2831 33.8929 49.7673 32.0827 49.7673C30.2724 49.7673 28.7997 48.2831 28.7997 46.4587ZM47.8725 60.1705H54.1188V63.1355H47.8725V60.1705ZM70.9297 69.9991H22.0703V66.8799C22.0703 65.9568 22.8213 65.2058 23.7444 65.2058H69.2556C70.1787 65.2058 70.9297 65.9568 70.9297 66.8799V69.9991Z" fill="#00887B"/>
</g>
<defs>
<clipPath id="clip0">
<rect width="53" height="53" fill="white" transform="translate(20 21)"/>
</clipPath>
</defs>
</svg>
