<svg width="94" height="94" viewBox="0 0 94 94" fill="none" xmlns="http://www.w3.org/2000/svg">
<circle cx="47" cy="47" r="46.5" fill="#F1FDFA" stroke="#E5EEED"/>
<g clip-path="url(#clip0)">
<path d="M51.746 30.889H41.2539C40.7038 30.889 40.2578 31.3351 40.2578 31.8851V35.7566C40.2578 36.3066 40.7038 36.7526 41.2539 36.7526H51.746C52.296 36.7526 52.7421 36.3066 52.7421 35.7566V31.8851C52.7421 31.3351 52.296 30.889 51.746 30.889ZM50.7499 34.7605H42.25V32.8812H50.7499V34.7605Z" fill="#00887B"/>
<path d="M64.6831 44.2502H60.7297V28.4808H61.5743C62.1243 28.4808 62.5704 28.0347 62.5704 27.4847V22.9961C62.5704 22.4461 62.1243 22 61.5743 22H31.4258C30.8757 22 30.4297 22.4461 30.4297 22.9961V27.4847C30.4297 28.0347 30.8757 28.4808 31.4258 28.4808H32.2704V44.2502H28.3169C27.7668 44.2502 27.3208 44.6963 27.3208 45.2463V50.6606C27.3208 51.2106 27.7668 51.6567 28.3169 51.6567H29.5411V72.0039C29.5411 72.5539 29.987 73 30.5372 73H62.4628C63.0128 73 63.4589 72.5539 63.4589 72.0039V51.6567H64.6831C65.2331 51.6567 65.6792 51.2106 65.6792 50.6606V45.2463C65.6792 44.6963 65.2331 44.2502 64.6831 44.2502ZM32.4219 23.9922H60.5781V26.4886H32.4219V23.9922ZM34.2625 28.4809H58.7374V44.2503H34.2625V28.4809ZM61.4667 71.0078H31.5333V51.6567H61.4667V71.0078ZM63.687 49.6645H29.313V46.2424H63.6869V49.6645H63.687Z" fill="#00887B"/>
<path d="M40.172 61.4906H52.828C53.378 61.4906 53.8241 61.0445 53.8241 60.4945V55.8246C53.8241 55.2745 53.378 54.8285 52.828 54.8285H40.172C39.6219 54.8285 39.1759 55.2745 39.1759 55.8246V60.4945C39.1759 61.0446 39.6219 61.4906 40.172 61.4906ZM41.1681 56.8207H51.8319V59.4984H41.1681V56.8207Z" fill="#00887B"/>
</g>
<defs>
<clipPath id="clip0">
<rect width="51" height="51" fill="white" transform="translate(21 22)"/>
</clipPath>
</defs>
</svg>
