<svg width="75" height="75" viewBox="0 0 75 75" fill="none" xmlns="http://www.w3.org/2000/svg">
<circle cx="37.2879" cy="37.2879" r="36.8912" fill="#F1FDFA" stroke="#E5EEED" stroke-width="0.793359"/>
<g clip-path="url(#clip0)">
<path d="M57.1797 31.0685H54.8818L55.5574 26.6576C55.5936 26.4211 55.5249 26.1807 55.369 25.9991C55.2132 25.8176 54.9858 25.7132 54.7466 25.7132H49.3912C49.1519 25.7132 48.9246 25.8176 48.7689 25.9991C48.6131 26.1807 48.5442 26.4212 48.5804 26.6576L49.256 31.0685H45.0662L44.7443 23.3842C44.6851 22.0472 43.5907 21 42.253 21H31.747C30.4092 21 29.3149 22.0473 29.2556 23.3862L28.9338 31.0685H26.9695V28.3214C26.9695 27.8684 26.6023 27.5011 26.1492 27.5011H19.2673C18.8142 27.5011 18.447 27.8684 18.447 28.3214V31.0685H16.8203C16.3673 31.0685 16 31.4359 16 31.8888V35.9501C16 36.4031 16.3673 36.7704 16.8203 36.7704H19.0142V53.013C19.0142 53.466 19.3814 53.8333 19.8345 53.8333C20.2875 53.8333 20.6548 53.466 20.6548 53.013V43.9865L27.8707 36.7704H28.8326C28.9442 37.1411 29.1428 37.4829 29.4195 37.7721C29.8945 38.2685 30.5342 38.5419 31.2211 38.5419H35.9176V39.994H30.105C28.9319 39.994 27.9774 40.9484 27.9774 42.1216V44.8658C27.9774 45.3187 28.3446 45.6861 28.7977 45.6861H35.9176V48.8084H34.3842C33.3331 48.8084 32.4203 49.5205 32.1643 50.5398L31.6943 52.4117C31.584 52.8512 31.8508 53.2969 32.2902 53.4072C32.7295 53.5176 33.1752 53.2507 33.2855 52.8113L33.7555 50.9394C33.8279 50.6506 34.0865 50.449 34.3841 50.449H35.9175V53.013C35.9175 53.466 36.2848 53.8333 36.7378 53.8333C37.1909 53.8333 37.5581 53.466 37.5581 53.013V50.449H39.0916C39.3892 50.449 39.6477 50.6506 39.7202 50.9394L40.1901 52.8113C40.2836 53.1836 40.6179 53.432 40.9852 53.432C41.0513 53.432 41.1185 53.4239 41.1855 53.4071C41.6248 53.2968 41.8917 52.8512 41.7814 52.4116L41.3114 50.5397C41.0554 49.5203 40.1425 48.8083 39.0915 48.8083H37.5581V45.686H45.2021C45.6551 45.686 46.0224 45.3187 46.0224 44.8657V42.1216C46.0224 40.9484 45.0679 39.9939 43.8947 39.9939H37.5581V38.5418H42.7786C43.4655 38.5418 44.1053 38.2684 44.5803 37.772C44.857 37.4827 45.0556 37.1408 45.1673 36.7703H46.129L53.345 43.9864V53.0129C53.345 53.4659 53.7122 53.8333 54.1653 53.8333C54.6183 53.8333 54.9856 53.4659 54.9856 53.0129V36.7704H57.1797C57.6327 36.7704 58 36.4031 58 35.9501V31.8888C58 31.4359 57.6327 31.0685 57.1797 31.0685ZM44.3819 42.1216V44.0454H29.6181V42.1216C29.6181 41.8531 29.8365 41.6345 30.1051 41.6345H43.895C44.1635 41.6346 44.3819 41.8531 44.3819 42.1216V42.1216ZM50.3468 27.3537H53.7911L53.2221 31.0685H50.9158L50.3468 27.3537ZM20.0876 29.1417H25.3289V31.0685H20.0876V29.1417ZM17.6406 32.7091H28.865L28.7637 35.1298H17.6406V32.7091ZM20.6548 41.6662V36.7704H25.5505L20.6548 41.6662ZM43.395 36.6379C43.2326 36.8077 43.0137 36.9013 42.7789 36.9013H31.2211C30.9863 36.9013 30.7674 36.8077 30.605 36.6379C30.4423 36.4679 30.3584 36.2447 30.3689 36.0075L30.8947 23.4568C30.915 22.9992 31.2894 22.6406 31.7471 22.6406H42.253C42.7107 22.6406 43.0851 22.9992 43.1053 23.4549L43.6312 36.0094C43.6416 36.2447 43.5577 36.4679 43.395 36.6379V36.6379ZM53.3452 41.6662L48.4495 36.7704H53.3452V41.6662ZM56.3594 35.1298H45.2363L45.135 32.7091H56.3594V35.1298Z" fill="#00887B"/>
</g>
<defs>
<clipPath id="clip0">
<rect width="42" height="42" fill="white" transform="translate(16 16)"/>
</clipPath>
</defs>
</svg>
